<svg xmlns="http://www.w3.org/2000/svg" xmlns:xlink="http://www.w3.org/1999/xlink" data-name="Layer 1" width="1229.6363713603369" height="652.0000043348828" style=""><rect id="backgroundrect" width="100%" height="100%" x="0" y="0" fill="none" stroke="none" class="" style=""/><defs><linearGradient id="c518dc33-18b9-48bc-b516-0f83ad79191e" x1="0.49999693036079407" y1="0.9999061822891235" x2="0.49999693036079407" y2="-0.000025636572900111787"><stop offset="0" stop-color="gray" stop-opacity="0.25"/><stop offset="0.54" stop-color="gray" stop-opacity="0.12"/><stop offset="1" stop-color="gray" stop-opacity="0.1"/></linearGradient></defs><title>maker launch</title><g class="currentLayer" style=""><title>Layer 1</title><path d="M76.03274343490602,334.460022277832 c20.16,-32.93 65.75,-27.19 98.08,-10 s64.59,42.85 100.17,37.92 c30,-4.16 54.6,-30.32 67.89,-60.5 s17.19,-64.21 20.93,-97.54 Q370.15274343490603,141.53002227783202 377.192743434906,78.64002227783203 c1.7200000000000002,-15.33 3.75,-31.51 12.37,-43.64 c11.39,-16 32.27,-20.92 50.13,-16.11 s33.09,17.71 46.12,32.1 C527.552743434906,97.07002227783204 551.202743434906,159.36002227783206 587.692743434906,210.64002227783203 c7.43,10.44 15.82,20.76 26.92,25.8 c16,7.25 34.37,2.12 50,-5.95 c51,-26.29 85.26,-79.94 118.93,-130 c16.38,-24.33 36.35,-50.35 63.6,-53 C875.812743434906,44.64002227783203 900.7027434349061,69.07002227783204 917.552743434906,94.94002227783204 c54.08,83.24 65.67,196.88 131,269.48 c8.11,9 17.06,17.32 27.37,22.91 a70.65,70.65 0 0 0 10.6,4.65 c57,19.73 76,98.93 33.84,145.89 c-0.91,1 -1.84,2 -2.7800000000000002,3 c-6.26,6.61 -13.35,12.86 -21.81,14.83 c-7.87,1.82 -16,-0.28 -23.8,-2.55 c-49.86,-14.55 -99.12,-36.79 -150.67,-35.71 c-50.16,1 -97.74,24.17 -147.34,32.51 c-33.35,5.61 -67.28,4.49 -101,3.2800000000000002 q-168.46,-6.06 -336.85,-14.1 c-55.72,-2.56 -111.46,-5 -167.17,-7.85 c-42.92,-2.23 -70.26,-7.14 -75.24,-56.95 C89.34274343490603,430.7100222778321 50.182743434906,376.700022277832 76.03274343490602,334.460022277832 z" fill="#2ed198" opacity="0.1" id="svg_1" class="" fill-opacity="1"/><path d="M96.03274200439455,358.0963864994049 c20.16,-32.93 65.75,-27.19 98.08,-10 s64.59,42.85 100.17,37.92 c30,-4.16 54.6,-30.32 67.89,-60.5 s17.19,-64.21 20.93,-97.54 Q390.15274200439455,165.1663864994049 397.1927420043945,102.27638649940491 c1.7200000000000002,-15.33 3.75,-31.51 12.37,-43.64 c11.39,-16 32.27,-20.92 50.13,-16.11 s33.09,17.71 46.12,32.1 C547.5527420043945,120.70638649940491 571.2027420043945,182.99638649940493 607.6927420043945,234.2763864994049 c7.43,10.44 15.82,20.76 26.92,25.8 c16,7.25 34.37,2.12 50,-5.95 c51,-26.29 85.26,-79.94 118.93,-130 c16.38,-24.33 36.35,-50.35 63.6,-53 C895.8127420043945,68.27638649940491 920.7027420043946,92.70638649940491 937.5527420043945,118.57638649940492 c54.08,83.24 65.67,196.88 131,269.48 c8.11,9 17.06,17.32 27.37,22.91 a70.65,70.65 0 0 0 10.6,4.65 c57,19.73 76,98.93 33.84,145.89 c-0.91,1 -1.84,2 -2.7800000000000002,3 c-6.26,6.61 -13.35,12.86 -21.81,14.83 c-7.87,1.82 -16,-0.28 -23.8,-2.55 c-49.86,-14.55 -99.12,-36.79 -150.67,-35.71 c-50.16,1 -97.74,24.17 -147.34,32.51 c-33.35,5.61 -67.28,4.49 -101,3.2800000000000002 q-168.46,-6.06 -336.85,-14.1 c-55.72,-2.56 -111.46,-5 -167.17,-7.85 c-42.92,-2.23 -70.26,-7.14 -75.24,-56.95 C109.34274200439455,454.34638649940496 70.18274200439453,400.33638649940485 96.03274200439455,358.0963864994049 z" fill="#2ed198" opacity="0.1" class="" id="svg_7" fill-opacity="1"/><ellipse cx="453.5364074707031" cy="602.2672576904297" rx="269.989990234375" ry="37.72999954223633" fill="#30374e" id="svg_2" class=""/><path d="M304.9000006866455,244.63999938964844 l-0.11000000000000001,0.08000000000000002 l-36.9,47.64 c0,0.4 0,0.8 0,1.21 a50.7,50.7 0 0 0 5.79,23.57 l43.48,-74.36 z" fill="#fff" opacity="0.2" id="svg_86" class=""/><path d="M316.6800006866455,287.63999938964844 l-30.22,45.25 a51.33,51.33 0 0 1 -9.52,-10.33 l36,-38.64 z" fill="#fff" opacity="0.2" id="svg_87" class=""/><path d="M600.6163837432862,581.6572790527343 s46.74,-58.16 43.64,-116.41 a113.05,113.05 0 0 1 18.54,-69.06 a190.19,190.19 0 0 1 22,-27 " fill="none" stroke="#535461" stroke-miterlimit="10" stroke-width="2" id="svg_89" class=""/><path d="M686.6627515411376,332.50727905273436 c-3.34,8.11 1.6600000000000001,37.68 1.6600000000000001,37.68 s24.37,-17.48 27.71,-25.59 a15.88,15.88 0 0 0 -29.37,-12.09 z" fill="#2ed198" id="svg_90" class="" fill-opacity="1"/><path d="M636.610020236969,369.265460805893 c1.61,8.620000000000001 21.88,30.72 21.88,30.72 s11,-27.91 9.35,-36.54 a15.88,15.88 0 0 0 -31.23,5.82 z" fill="#2ed198" id="svg_91" class="" fill-opacity="1"/><path d="M599.7563837432862,508.2972790527343 c4.53,7.51 31.28,21.07 31.28,21.07 s0.4400000000000001,-30 -4.09,-37.5 a15.88,15.88 0 1 0 -27.19,16.43 z" fill="#2271ff" id="svg_93" class=""/><path d="M694.1345654964448,408.8009155464173 c-8.14,3.25 -37.66,-2.05 -37.66,-2.05 s17.72,-24.19 25.87,-27.45 a15.88,15.88 0 0 1 11.79,29.5 z" fill="#2ed198" id="svg_94" class="" fill-opacity="1"/><path d="M679.7363837432861,486.7072790527344 c-8.74,0.6700000000000004 -35.32,-13.22 -35.32,-13.22 s24.14,-17.79 32.89,-18.46 a15.89,15.89 0 0 1 2.43,31.68 z" fill="#2ed198" id="svg_95" class="" fill-opacity="1"/><path d="M657.6063837432862,557.2072790527344 c-8.51,2.14 -37.05,-7.06 -37.05,-7.06 s20.79,-21.61 29.3,-23.74 a15.88,15.88 0 1 1 7.75,30.8 z" fill="#2271ff" id="svg_96" class=""/><path d="M686.6627472496032,332.50727905273436 c-3.34,8.11 1.6600000000000001,37.68 1.6600000000000001,37.68 s24.37,-17.48 27.71,-25.59 a15.88,15.88 0 0 0 -29.37,-12.09 z" opacity="0.25" id="svg_97" class=""/><path d="M686.6627477264403,334.3254610443115 c-3.34,8.11 1.6600000000000001,37.68 1.6600000000000001,37.68 s24.37,-17.48 27.71,-25.59 a15.88,15.88 0 0 0 -29.37,-12.09 z" opacity="0.25" class="" id="svg_3" fill-opacity="1" fill="#2ed198"/><path d="M638.4281998443604,371.08363922119145 c1.61,8.620000000000001 21.88,30.72 21.88,30.72 s11,-27.91 9.35,-36.54 a15.88,15.88 0 0 0 -31.23,5.82 z" opacity="0.25" id="svg_98" class="" fill-opacity="1" fill="#2ed198"/><path d="M636.6100197601319,372.90182312011723 c1.61,8.620000000000001 21.88,30.72 21.88,30.72 s11,-27.91 9.35,-36.54 a15.88,15.88 0 0 0 -31.23,5.82 z" opacity="0.25" class="" id="svg_4" fill-opacity="1" fill="#2ed198"/><path d="M667.8881998443603,457.39455871582027 c5.74,6.63 34.4,15.48 34.4,15.48 s-4.6400000000000015,-29.63 -10.38,-36.27 a15.88,15.88 0 0 0 -24,20.79 z" opacity="0.25" id="svg_99" class=""/><path d="M599.7563837432862,508.2972790527343 c4.53,7.51 31.28,21.07 31.28,21.07 s0.4400000000000001,-30 -4.09,-37.5 a15.88,15.88 0 1 0 -27.19,16.43 z" opacity="0.25" id="svg_100" class=""/><path d="M695.9527515411378,410.61909515380864 c-8.14,3.25 -37.66,-2.05 -37.66,-2.05 s17.72,-24.19 25.87,-27.45 a15.88,15.88 0 0 1 11.79,29.5 z" opacity="0.25" id="svg_101" class="" fill-opacity="1" fill="#2ed198"/><path d="M679.7363837432861,486.7072790527344 c-8.74,0.6700000000000007 -35.32,-13.22 -35.32,-13.22 s24.14,-17.79 32.89,-18.46 a15.89,15.89 0 0 1 2.43,31.68 z" opacity="0.25" id="svg_102" class="" fill-opacity="1" fill="#2ed198"/><path d="M657.6063837432862,557.2072790527344 c-8.51,2.14 -37.05,-7.06 -37.05,-7.06 s20.79,-21.61 29.3,-23.74 a15.88,15.88 0 1 1 7.75,30.8 z" opacity="0.25" id="svg_103" class=""/><path d="M601.0363837432861,579.2272790527344 s66.3,-34.24 87.07,-88.74 a113,113 0 0 1 44.94,-55.63 a189.91,189.91 0 0 1 31,-15.76 " fill="none" stroke="#535461" stroke-miterlimit="10" stroke-width="2" id="svg_104" class=""/><path d="M777.3363837432862,384.8272790527344 c-6.34,6.07 -13.75,35.13 -13.75,35.13 s29.36,-6.11 35.7,-12.17 a15.88,15.88 0 0 0 -21.95,-23 z" fill="#2271ff" id="svg_105" class=""/><path d="M777.3363837432862,384.8272790527344 c-6.34,6.07 -13.75,35.13 -13.75,35.13 s29.36,-6.11 35.7,-12.17 a15.88,15.88 0 0 0 -21.95,-23 z" fill="#2ed198" class="" id="svg_8" fill-opacity="1"/><path d="M724.0763837432862,399.4372790527344 c-2,8.54 7.55,37 7.55,37 S752.9163837432861,415.3672790527344 754.9763837432861,406.77727905273434 a15.88,15.88 0 0 0 -30.9,-7.34 z" fill="#2271ff" id="svg_106" class=""/><path d="M724.0763837432862,399.4372790527344 c-2,8.54 7.55,37 7.55,37 S752.9163837432861,415.3672790527344 754.9763837432861,406.77727905273434 a15.88,15.88 0 0 0 -30.9,-7.34 z" fill="#2ed198" class="" id="svg_10" fill-opacity="1"/><path d="M670.3109292411805,455.83909729957577 c2.56,8.39 25.18,28.09 25.18,28.09 s7.77,-29 5.21,-37.35 a15.88,15.88 0 0 0 -30.39,9.26 z" fill="#2ed198" id="svg_107" class="" fill-opacity="1"/><path d="M666.6352408297768,455.0721612433716 c2.412660827636719,8.076011405587197 23.730781109333037,27.038755707144738 23.730781109333037,27.038755707144738 s7.322802590131759,-27.914699733257294 4.910141762495041,-35.95220810472966 a14.966036696434022,15.285704543590546 0 0 0 -28.64092287182808,8.913452397584916 z" fill="#2ed198" class="" id="svg_6" fill-opacity="1"/><path d="M672.1291040802002,450.38455204010006 c2.56,8.39 25.18,28.09 25.18,28.09 s7.77,-29 5.21,-37.35 a15.88,15.88 0 0 0 -30.39,9.26 z" fill="#2ed198" class="" id="svg_5" fill-opacity="1"/><path d="M672.1291078948975,452.2027340316772 c2.56,8.39 25.18,28.09 25.18,28.09 s7.77,-29 5.21,-37.35 a15.88,15.88 0 0 0 -30.39,9.26 z" fill="#2ed198" class="" id="svg_11" fill-opacity="1"/><path d="M672.1291098022461,452.202736415863 c2.56,8.39 25.18,28.09 25.18,28.09 s7.77,-29 5.21,-37.35 a15.88,15.88 0 0 0 -30.39,9.26 z" fill="#2ed198" class="" id="svg_12" fill-opacity="1"/><path d="M629.9763837432861,511.7972790527343 c1.1,8.71 20.06,31.94 20.06,31.94 s12.56,-27.23 11.45,-35.94 a15.88,15.88 0 0 0 -31.51,4 z" fill="#2271ff" id="svg_108" class=""/><path d="M751.6282019901275,463.4854608058929 c-8.77,-0.3200000000000002 -33.6,-17.13 -33.6,-17.13 s26,-14.93 34.77,-14.61 a15.88,15.88 0 1 1 -1.17,31.74 z" fill="#2271ff" id="svg_109" class=""/><path d="M751.6282019901275,463.4854608058929 c-8.77,-0.3200000000000003 -33.6,-17.13 -33.6,-17.13 s26,-14.93 34.77,-14.61 a15.88,15.88 0 1 1 -1.17,31.74 z" fill="#2ed198" class="" id="svg_9" fill-opacity="1"/><path d="M720.937292509079,513.558188533783 c-8.27,-2.93 -26.94,-26.4 -26.94,-26.4 s29.29,-6.47 37.55,-3.54 a15.88,15.88 0 1 1 -10.61,29.94 z" fill="#2ed198" id="svg_110" class="" fill-opacity="1"/><path d="M688.033656730652,543.4509155464173 L636.6436567306519,468.9209155464173 s-1,-18.45 -4.32,-22.76 s-0.7200000000000003,-13.9 -0.7200000000000003,-13.9 s3.6,-5.27 0.48000000000000015,-5.75 s-0.48000000000000015,-12.23 -0.48000000000000015,-12.23 l-0.24000000000000007,-18.69 s2.88,-18 0.48000000000000015,-22.28 a7.07,7.07 0 0 1 0.24000000000000007,-7.67 s2.88,-10.31 0,-12.94 s-2.16,-18.7 -1.44,-31.4 s-5.05,-19.89 -5.05,-21.81 s-19,-20.61 -19,-22.28 s-12,-8.63 -19.21,-10.55 s-10.81,-3.35 -10.57,-4.3100000000000005 s-11.29,-4.79 -11.29,-4.79 s-10.09,-0.7200000000000003 -13.94,-5.76 s-15.59,-6.48 -15.93,-6.53 c-0.07,-0.3300000000000002 -0.15000000000000008,-0.6700000000000006 -0.22000000000000008,-1 s-0.15000000000000008,-0.7200000000000003 -0.22000000000000008,-1.08 c0.91,-1.53 1.75,-3.09 2.51,-4.7 c0.23,-0.49000000000000016 0.45,-1 0.6600000000000005,-1.46 c4.21,-0.19000000000000009 8.53,-1.09 11.83,-3.67 a16.11,16.11 0 0 0 5.75,-11.49 a25.19,25.19 0 0 0 -2.81,-12.77 c-2.1,-4.32 -5.19,-8.79 -4.13,-13.47 c0.47000000000000014,-2 1.6800000000000006,-3.8 2.3,-5.78 c1.17,-3.75 0.09000000000000007,-7.87 -1.73,-11.35 s-4.35,-6.54 -6.37,-9.91 a38.7,38.7 0 0 1 -5.07,-14 c-0.41000000000000014,-2.6 -0.5700000000000003,-5.34 -1.8800000000000003,-7.63 a14.21,14.21 0 0 0 -4.21,-4.25 a42.07,42.07 0 0 0 -25.82,-7.83 c-6.54,0.23 -13.06,2 -19.55,1.19 c-3.91,-0.48000000000000015 -7.6400000000000015,-1.87 -11.42,-3 c-8.06,-2.38 -17.35,-3.36 -24.37,1.25 s-9.81,13.68 -14.56,20.77 c-4.2,6.28 -10.36,11.54 -13.56,18.18 c0,-0.12000000000000002 0.06000000000000003,-0.25 0.1,-0.38000000000000017 a21.75,21.75 0 0 0 -1.79,4.84 c-1.22,5.22 -0.2,10.68 1.07,15.89 c0.6500000000000004,2.6900000000000004 1.55,5.61 3.88,7.1 s5.63,1.1600000000000001 8.39,1.6500000000000006 c-0.1,0.45 -0.22000000000000008,0.91 -0.3200000000000002,1.37 a54.9,54.9 0 0 0 38.09,64 c0,0.49000000000000016 0,1 0,1.46 a36.33,36.33 0 0 1 -0.25,4.12 h0 s-24.15,-5 -30.64,-1.6 s-19.22,6 -21.14,7.9 s-6.72,0.48000000000000015 -11,11.75 s-4.8,22.76 -10.33,28 s-8.4,8.870000000000001 -8.64,12.71 s0.7200000000000003,4.79 -1.45,6 s-5.28,6.23 -4.32,8.15 c0,0 1.2,4.79 -2.64,7.18 s-3.37,7.19 -3.37,7.19 s-1.44,5.28 -4.8,6.47 s-5.53,9.11 -5.53,9.11 L357.16365673065184,388.73091554641724 L335.5736567306518,364.83091554641726 a9.1,9.1 0 0 0 -12.85,-0.6600000000000005 L312.1236567306519,373.73091554641724 a20.94,20.94 0 0 0 -10.61,6.32 a27.35,27.35 0 0 0 -5.49,8.18 l-5.8100000000000005,5.22 A14.75,14.75 0 0 0 288.7236567306519,409.73091554641724 l13.83,15.29 l0.09000000000000007,0.13 c-5.23,0.6600000000000005 -9.85,2.34 -13.38,5.45 c-20.65,18.21 -20.9,35 -17.77,42.65 s29.3,37.15 29.3,37.15 s15.21,19.77 37.17,30.29 l0,0 l-0.17,0.17 c-0.43000000000000016,0.46 -0.8600000000000003,1 -1.28,1.5 l-0.36000000000000015,0.46 l-0.3300000000000002,0.46 l-0.3900000000000002,0.5800000000000003 c-0.11000000000000004,0.15000000000000008 -0.21000000000000008,0.31000000000000016 -0.31000000000000016,0.47000000000000014 s-0.28,0.45 -0.41000000000000014,0.6900000000000006 l-0.27,0.46 c-0.1600000000000001,0.30000000000000016 -0.3300000000000002,0.6100000000000003 -0.49000000000000016,0.93 l-0.1600000000000001,0.31000000000000016 c-0.2,0.42000000000000015 -0.4,0.8500000000000003 -0.5900000000000003,1.3 c-0.07,0.1600000000000001 -0.13,0.3300000000000002 -0.2,0.49000000000000016 c-0.12000000000000002,0.31000000000000016 -0.25,0.6300000000000003 -0.37000000000000016,1 s-0.15000000000000008,0.41000000000000014 -0.22000000000000008,0.6200000000000003 s-0.21000000000000008,0.6200000000000003 -0.31000000000000016,0.9400000000000003 s-0.14,0.45 -0.2,0.6700000000000006 s-0.2,0.7000000000000003 -0.29000000000000015,1.06 s-0.11000000000000004,0.42000000000000015 -0.17,0.6500000000000004 c-0.13,0.55 -0.26,1.12 -0.37000000000000016,1.7200000000000002 c0,0.22000000000000008 -0.08000000000000004,0.45 -0.12000000000000002,0.6800000000000006 q-0.12000000000000002,0.6000000000000003 -0.21000000000000008,1.23 c-0.05000000000000003,0.29000000000000015 -0.08000000000000004,0.5800000000000003 -0.12000000000000002,0.8700000000000003 s-0.1,0.79 -0.15000000000000008,1.19 l-0.09000000000000007,0.92 c0,0.44000000000000017 -0.08000000000000004,0.9 -0.11000000000000004,1.36 c0,0.28 0,0.56 -0.05000000000000003,0.8400000000000003 c0,0.7600000000000003 -0.08000000000000004,1.52 -0.09000000000000007,2.3200000000000003 c-0.48000000000000015,28 1.1600000000000001,32.11 1.1600000000000001,32.11 s3.39,8.93 12.75,9.57 a16.3,16.3 0 0 0 4.11,-0.22000000000000008 c12.49,-2.16 41.79,-7.19 52.12,-5.27 c6.21,1.15 17.71,-0.55 25.9,-2.1 l2.15,-0.41000000000000014 l1.5,4.76 l4.75,-1.3 l4,2.33 l2.55,1.46 c4.74,16.08 24,10.6 24,10.6 L469.64365673065186,618.7309155464172 l46.36,1.2 s10,6 16.41,7.88 a15.24,15.24 0 0 0 2.33,0.51 a105.21,105.21 0 0 0 12.92,0.24000000000000007 c3.55,-0.09000000000000007 6.3,-0.24000000000000007 6.3,-0.24000000000000007 s-0.47000000000000014,-12.59 -1.15,-26.68 c17.72,-0.7400000000000003 33.43,-1.85 42.94,-3.52 c24.76,-4.35 35.09,-26.86 38.89,-38.89 a113.19,113.19 0 0 1 2.43,14.93 a106.74,106.74 0 0 0 3.85,12.94 a43.73,43.73 0 0 0 5.28,9.58 c18.26,-6.23 7.21,-15.57 3.36,-19.65 s2.6500000000000004,-7.43 2.6500000000000004,-7.43 s5,-3.35 4.5600000000000005,-6.47 s-0.7200000000000003,-6.47 15.61,-6.23 S688.033656730652,543.4509155464173 688.033656730652,543.4509155464173 zm-253.66,-153 c0.21000000000000008,1.37 2.49,16.14 4.55,20 c0.43000000000000016,0.8200000000000003 0.6000000000000003,3.73 0.54,7.8900000000000015 c-9.68,-0.77 -19.76,-1.18 -19.76,-1.18 a2.3200000000000003,2.3200000000000003 0 0 1 0.52,1.23 l-1.52,-0.3400000000000003 l-2.21,-0.54 l17.83,-27.12 zm-35.32,56.2 l16.75,2.66 l1.4100000000000001,0.22000000000000008 a55.11,55.11 0 0 0 -0.8700000000000003,7.91 c0,0.25 0.38000000000000017,0.55 0.92,0.9 a21.57,21.57 0 0 0 -0.3300000000000002,4 c0.27,1.33 8.1,4.19 17.08,6.57 c-0.12000000000000002,0.48000000000000015 -0.24000000000000007,0.9400000000000003 -0.36000000000000015,1.37 h0 c-7.93,-4.17 -20.43,-6.12 -21.87,-9.22 s-44,-18 -44,-18 s-1.55,-0.8200000000000003 -4.23,-2.12 l11.2,2.12 l3.08,-0.31000000000000016 A167.91,167.91 0 0 0 399.0536567306518,446.6309155464172 z" fill="url(#c518dc33-18b9-48bc-b516-0f83ad79191e)" id="svg_112" class=""/><path d="M640.6263837432862,557.5172790527344 s-6.66,40.23 -40.47,46.18 s-146.66,4.76 -146.66,4.76 s-64.52,-9.28 -87.85,-63.8 S327.3163837432861,468.4672790527344 347.3163837432861,467.51727905273435 s127.85,36.43 134,36.9 S646.5763837432861,421.5672790527344 640.6263837432862,557.5172790527344 z" fill="#434175" id="svg_113" class=""/><path d="M640.6263837432862,557.5172790527344 s-6.66,40.23 -40.47,46.18 s-146.66,4.76 -146.66,4.76 s-64.52,-9.28 -87.85,-63.8 S327.3163837432861,468.4672790527344 347.3163837432861,467.51727905273435 s127.85,36.43 134,36.9 S646.5763837432861,421.5672790527344 640.6263837432862,557.5172790527344 z" opacity="0.05" id="svg_114" class=""/><path d="M337.9863837432862,602.2672790527344 s3.37,8.88 12.64,9.51 a16.43,16.43 0 0 0 4.07,-0.22000000000000006 c12.38,-2.14 41.43,-7.14 51.66,-5.24 c6.16,1.15 17.55,-0.55 25.66,-2.08 c5.4,-1 9.34,-2 9.34,-2 s-9.52,-31.66 -10.72,-32.61 s-42.85,-25.95 -42.85,-25.95 l-33,-2.37 h-0.1 s-6.11,0.4100000000000001 -11.18,6.57 c-3.49,4.21 -6.48,11.13 -6.68,22.47 C336.3663837432862,598.2172790527344 337.9863837432862,602.2672790527344 337.9863837432862,602.2672790527344 z" fill="#565387" id="svg_115" class=""/><path d="M337.9863837432862,602.2672790527344 s3.37,8.88 12.64,9.51 a135.54,135.54 0 0 1 -9,-13.08 l0.17,-23.09 c-1.47,-17.29 6.62,-28.36 13,-34.27 h-0.1 s-17.38,1.18 -17.86,29 S337.9863837432862,602.2672790527344 337.9863837432862,602.2672790527344 z" opacity="0.05" id="svg_116" class=""/><path d="M481.1163837432862,551.7972790527343 l30.71,-24 l48.33,-47.62 s-5.22,-0.25 -13.09,-0.5900000000000002 c-2,1.25 -7.45,5.18 -7.65,10 c-0.24000000000000005,5.82 -13.07,0.4 -19.73,3.73 s-39.28,45.08 -45,44.81 s-10.23,-2.9 -12.620000000000001,1.15 c0,0.09000000000000004 -0.11000000000000003,0.17 -0.17,0.26 z" opacity="0.1" id="svg_117" class=""/><path d="M343.51638374328616,547.8972790527343 c1.09,0.53 2.19,1 3.3200000000000003,1.52 c23.34,10 52.14,31 54.29,34.76 c1.3,2.3200000000000003 18,12.46 30.89,20.06 c5.4,-1 9.34,-2 9.34,-2 s-9.52,-31.66 -10.72,-32.61 s-42.85,-25.95 -42.85,-25.95 l-33,-2.37 h-0.1 S348.5863837432861,541.7372790527344 343.51638374328616,547.8972790527343 z" opacity="0.1" id="svg_118" class=""/><path d="M278.75638374328616,479.65727905273434 c3.09,7.62 29,36.91 29,36.91 s16.42,21.42 39.76,31.42 s52.14,31 54.28,34.76 c1.3800000000000001,2.45 20,13.65 33.08,21.35 l2.93,1.71 l6.5,3.77 l3.44,2 s8,-6.4 15.91,-12.84 s15.63,-12.75 15.76,-13.11 c0.23,-0.7100000000000002 3.3200000000000003,-8.81 2.6100000000000003,-9.28 c-0.3700000000000001,-0.25 -2,-3.55 -5,-7.37 a33.82,33.82 0 0 0 -12.13,-10 c-11,-5 -15.71,-16.38 -15.71,-16.38 s-1,-0.7600000000000002 -2.63,-1.7600000000000002 c-2.8200000000000003,-1.78 -7.35,-4.34 -10.7,-4.77 c-5.25,-0.6600000000000003 -15,-11.37 -15,-11.37 s-6.67,-4.29 -9.29,-9.76 c-2.5,-5.22 -39.42,-30.58 -42.84,-32.92 l89.51,57.48 l21.42,13.77 l30.71,-24 l48.34,-47.62 s-6.5,-0.3200000000000001 -16,-0.7200000000000002 c-23.49,-1 -65.21,-2.6100000000000003 -70.48,-1.42 a40.17,40.17 0 0 1 -13.1,0.8500000000000002 s-11.88,0.54 -19.74,-3.6100000000000003 s-20.25,-6.09 -21.68,-9.16 s-43.57,-17.85 -43.57,-17.85 s-57.37,-30.47 -77.85,-12.37 S275.65638374328614,472.0472790527343 278.75638374328616,479.65727905273434 z" fill="#434175" id="svg_119" class=""/><path d="M463.7363837432862,304.9172790527344 l7.38,24.52 l9.52,55.23 l35,2.38 l10.13,-16.8 L535.9163837432861,353.4772790527344 s6.3,-22.32 10.83,-43.91 c4,-19.1 6.62,-37.64 2.26,-39.65 c-3.8600000000000003,-1.79 -6.4,-8.22 -8,-15.14 c-0.21000000000000005,-0.8500000000000002 -0.4,-1.7200000000000002 -0.5800000000000002,-2.59 a134.62,134.62 0 0 1 -2.3200000000000003,-17.75 s-73.33,-3.8 -63.09,26.43 a48.18,48.18 0 0 1 2.7600000000000002,16.08 a38.23,38.23 0 0 1 -0.25,4.09 A34.3,34.3 0 0 1 463.7363837432862,304.9172790527344 z" fill="#ee8e9e" id="svg_120" class=""/><path d="M448.4963837432862,300.8672790527344 l2.62,41.66 l5.95,35.47 l6.67,16.43 l5.95,89.88 s57.41,6.6400000000000015 71.37,-0.12000000000000002 a6.14,6.14 0 0 0 2.5300000000000002,-2 C560.4463837432861,456.75727905273436 554.9163837432861,382.99727905273437 554.9163837432861,382.99727905273437 L561.3463837432861,335.3672790527344 l-4.29,-24.72 l-10.35,-1.1 l-8,-0.8500000000000002 s-1.8,2.22 -4.4,5.65 c-7.06,9.32 -20,27.65 -19.17,35.3 c1.18,10.48 -1.4300000000000002,21.19 -5.48,22.86 s-7.38,4.52 -8.09,1.6700000000000004 s-1.4300000000000002,-3.5700000000000003 -0.7200000000000002,-7.62 s-3.1,-16.43 -3.1,-16.43 s-6.42,-14.52 -6,-20.71 s-0.7100000000000002,-13.34 -2.62,-15 s-4.52,-3.34 -2.38,-11 s-9.39,-22.45 -9.39,-22.45 z" fill="#e3e8f4" id="svg_121" class=""/><path d="M524.3263837432861,404.91727905273433 l2.38,71.19 l13.75,7.62 a6.15,6.15 0 0 0 2.5300000000000002,-2 c16.87,-25.47 11.34,-99.22 11.34,-99.22 l6.43,-47.62 l-4.29,-24.71 l-10.36,-1.1 c4,-19.1 6.62,-37.64 2.27,-39.65 c-3.87,-1.79 -6.41,-8.22 -8.06,-15.14 h0 L532.9163837432861,304.68727905273437 s0.6200000000000002,4.54 0.8400000000000002,9.22 c0.17,3.48 0.11000000000000003,7 -0.6000000000000002,8.870000000000001 c-1.6700000000000004,4.29 -0.4800000000000001,11.91 -0.4800000000000001,11.91 c-4.29,7.5600000000000005 -6.43,21.57 -7.48,35.1 C523.7863837432861,387.77727905273434 524.3263837432861,404.91727905273433 524.3263837432861,404.91727905273433 z" opacity="0.1" id="svg_122" class=""/><path d="M540.5463837432861,253.18727905273437 s12,1.49 15.8,6.49 S570.1563837432861,265.3672790527344 570.1563837432861,265.3672790527344 s11.43,3.81 11.19,4.76 s3.33,2.39 10.48,4.29 s19,8.81 19,10.48 s18.81,20.23 18.81,22.14 s5.72,9 5,21.66 s-1.4300000000000002,28.57 1.4300000000000002,31.19 s0,12.86 0,12.86 A7,7 0 0 0 635.9163837432861,380.3672790527344 c2.38,4.29 -0.4700000000000001,22.15 -0.4700000000000001,22.15 l0.23,18.57 s-2.62,11.66 0.4800000000000001,12.14 s-0.4800000000000001,5.71 -0.4800000000000001,5.71 s-2.62,9.53 0.7200000000000002,13.81 s4.28,22.62 4.28,22.62 l51,74 s0.7200000000000002,13.57 -15.47,13.33 s-16,3.1 -15.48,6.19 s-4.52,6.43 -4.52,6.43 s-6.43,3.33 -2.62,7.38 s14.76,13.33 -3.33,19.52 a43.16,43.16 0 0 1 -5.24,-9.52 a107.72,107.72 0 0 1 -3.81,-12.85 s-1.6700000000000004,-18.1 -5,-20.48 s-2.8600000000000003,-13.81 -2.8600000000000003,-13.81 s4.76,-9.28 -1.9,-13.09 S528.0163837432862,475.13727905273436 528.0163837432862,475.13727905273436 l-2.38,-71.19 s-1.6700000000000004,-52.61 8.33,-70.23 c0,0 -1.19,-7.62 0.4800000000000001,-11.9 s-0.24000000000000005,-18.1 -0.24000000000000005,-18.1 z" fill="#565387" id="svg_123" class=""/><path d="M478.14638374328615,281.74727905273437 s-23.93,-4.93 -30.36,-1.6 s-19,6 -21,7.86 s-6.67,0.4800000000000001 -10.95,11.67 s-4.77,22.61 -10.24,27.85 s-8.33,8.81 -8.57,12.620000000000001 s0.7100000000000002,4.76 -1.4300000000000002,6 s-5.24,6.19 -4.29,8.1 S440.91638374328613,397.99727905273437 440.91638374328613,397.99727905273437 s2.39,16 4.53,20 s-2.38,59.76 -7.14,63.57 s32.14,3.46 32.14,3.46 s1.6600000000000001,-36.55 3.09,-38.46 s-1,-41 -1,-41 s-0.24000000000000005,-33.33 2.8600000000000003,-42.14 S478.14638374328615,325.3672790527344 478.14638374328615,325.3672790527344 s2.74,-17.57 6.07,-21.67 S478.14638374328615,281.74727905273437 478.14638374328615,281.74727905273437 z" opacity="0.1" id="svg_124" class=""/><path d="M477.4363837432861,281.0372790527344 s-23.94,-4.93 -30.37,-1.6 s-19,5.95 -20.95,7.86 s-6.66,0.4700000000000001 -11,11.66 s-4.76,22.62 -10.24,27.86 s-8.33,8.81 -8.57,12.620000000000001 s0.7200000000000002,4.76 -1.42,5.95 s-5.24,6.19 -4.29,8.09 s49.52,43.81 49.52,43.81 s2.38,16 4.52,20 s-2.38,59.75 -7.14,63.56 s32.14,3.46 32.14,3.46 s1.6700000000000004,-36.55 3.1,-38.45 s-1,-41 -1,-41 s-0.23,-33.33 2.8600000000000003,-42.14 s2.75,-38.1 2.75,-38.1 s2.74,-17.57 6.06,-21.66 S477.4363837432861,281.0372790527344 477.4363837432861,281.0372790527344 z" fill="#565387" id="svg_125" class=""/><path d="M474.91638374328613,260.8672790527344 a48.18,48.18 0 0 1 2.7600000000000002,16.08 a54.63,54.63 0 0 0 62.65,-24.76 a134.62,134.62 0 0 1 -2.3200000000000003,-17.75 S464.6863837432861,230.63727905273436 474.91638374328613,260.8672790527344 z" opacity="0.1" id="svg_126" class=""/><path d="M438.7363837432862,223.24727905273437 A54.52,54.52 0 1 0 439.91638374328613,211.9172790527344 A54.53,54.53 0 0 0 438.7363837432862,223.24727905273437 z" fill="#ee8e9e" id="svg_127" class=""/><path d="M403.7363837432862,349.4272790527343 l-13.09,4.05 s1.19,4.76 -2.62,7.14 s-3.33,7.15 -3.33,7.15 s-1.4300000000000002,5.23 -4.76,6.42 s-5.48,9 -5.48,9 l-10.95,12.620000000000001 s-4.05,3.33 -3.33,5 s-4.29,2.14 -4.29,2.14 L358.50638374328616,445.3672790527344 l22.62,4.29 l14,-1.4300000000000002 l11.43,-4.29 l10,-6 L421.1163837432862,426.3672790527344 l20,-30.47 z" fill="#565387" id="svg_128" class=""/><path d="M359.2163837432861,406.3672790527344 s-29,-41.91 -50.71,-19.29 s8.81,59.28 15.95,58.09 s41.19,-3.09 41.19,-3.09 z" fill="#ee8e9e" id="svg_129" class=""/><rect x="66.06185913085938" y="1000.7363433837891" width="61.41999816894531" height="69.80000305175781" rx="12.619999885559082" ry="12.619999885559082" transform="rotate(-42.04999923706055 -605.2781982421873,416.80636596679693) " fill="#30374e" id="svg_130" class=""/><rect x="62.425506591796875" y="997.0999755859375" width="61.41999816894531" height="69.80000305175781" rx="12.619999885559082" ry="12.619999885559082" transform="rotate(-42.04999923706055 -608.91455078125,413.1699829101562) " opacity="0.1" id="svg_131" class=""/><rect x="73.03814697265625" y="1007.8555145263672" width="61.41999816894531" height="69.80000305175781" rx="12.619999885559082" ry="12.619999885559082" transform="rotate(-42.04999923706055 -599.1218261718749,427.3754882812501) " fill="#30374e" id="svg_132" class=""/><circle cx="336.0263977050781" cy="413.46726989746094" r="13.569999694824219" fill="#2271ff" id="svg_133" class=""/><circle cx="336.0263977050781" cy="413.46726989746094" r="13.569999694824219" opacity="0.1" id="svg_134" class=""/><circle cx="336.7864074707031" cy="411.74729919433594" r="13.569999694824219" fill="#2ed198" id="svg_135" class="" fill-opacity="1"/><path d="M340.41638374328613,415.13727905273436 c-0.24000000000000005,31.43 64.76,38.09 64.76,38.09 l16.6,2.64 l7.44,1.18 L432.3163837432861,426.3672790527344 s-3.41,-0.51 -7.67,-1.5 c-6.29,-1.47 -14.44,-4 -16.15,-7.55 C405.64638374328615,411.3672790527344 340.64638374328615,383.7172790527344 340.41638374328613,415.13727905273436 z" fill="#ee8e9e" id="svg_136" class=""/><path d="M439.91638374328613,211.9172790527344 a6.47,6.47 0 0 1 4,1.78 c1.84,1.9500000000000002 1.94,5.41 4.33,6.61 a4.92,4.92 0 0 0 2.84,0.3300000000000001 c6.33,-0.9 10,-8 16.07,-10 c3.46,-1.12 7.27,-0.3900000000000001 10.65,0.91 a7.93,7.93 0 0 1 3.5300000000000002,2.27 c2,2.63 0.6100000000000002,6.5 1.55,9.69 c1.31,4.42 6.59,6.18 11.16,6.76 s9.72,0.9 12.77,4.35 c2.16,2.45 2.71,6 2.27,9.21 a7.29,7.29 0 0 0 0,3.41 c1.26,3.5700000000000003 7.44,3 9.05,0.22000000000000006 c1.18,-2.05 0.8200000000000002,-3.75 3.6,-4.32 c1.8800000000000003,-0.3900000000000001 4.09,0.4 5.83,1 a42.71,42.71 0 0 0 15.08,2.3200000000000003 A54.53,54.53 0 1 0 439.91638374328613,211.9172790527344 z" opacity="0.1" id="svg_137" class=""/><path d="M509.0563837432861,245.79727905273438 a7.29,7.29 0 0 1 0,-3.41 c0.4300000000000001,-3.23 -0.11000000000000003,-6.77 -2.27,-9.21 c-3,-3.45 -8.2,-3.7800000000000002 -12.77,-4.35 s-9.85,-2.33 -11.16,-6.75 c-0.9400000000000002,-3.19 0.4800000000000001,-7.07 -1.55,-9.7 a7.8,7.8 0 0 0 -3.52,-2.26 c-3.39,-1.31 -7.2,-2 -10.66,-0.92 c-6.07,2 -9.74,9.12 -16.07,10 a4.92,4.92 0 0 1 -2.84,-0.3300000000000001 c-2.39,-1.2 -2.49,-4.66 -4.33,-6.6 c-2.89,-3.06 -8.38,-1.09 -11.92,-3.36 c-2.31,-1.49 -3.2,-4.38 -3.84,-7.05 c-1.26,-5.18 -2.27,-10.61 -1.06,-15.79 c2.07,-8.86 10,-14.93 15,-22.49 c4.71,-7.05 7.35,-16 14.43,-20.64 s16.17,-3.6100000000000003 24.15,-1.24 c3.74,1.11 7.44,2.49 11.31,3 c6.44,0.79 12.9,-1 19.38,-1.18 a41.62,41.62 0 0 1 25.59,7.77 a14.16,14.16 0 0 1 4.18,4.23 c1.29,2.2800000000000002 1.46,5 1.85,7.58 a38.75,38.75 0 0 0 5,13.93 c2,3.35 4.51,6.39 6.32,9.85 s2.87,7.55 1.71,11.27 c-0.6100000000000002,2 -1.82,3.73 -2.27,5.74 c-1.06,4.65 2,9.09 4.09,13.38 a25.1,25.1 0 0 1 2.7800000000000002,12.69 a16,16 0 0 1 -5.7,11.41 c-3.37,2.64 -7.8,3.52 -12.07,3.66 a42.78,42.78 0 0 1 -15.38,-2.31 c-1.75,-0.6000000000000002 -4,-1.3900000000000001 -5.83,-1 c-2.7800000000000002,0.5700000000000002 -2.42,2.27 -3.6,4.32 C516.4863837432862,248.8372790527344 510.3163837432861,249.36727905273438 509.0563837432861,245.79727905273438 z" fill="#434175" id="svg_138" class=""/><path d="M479.6863837432861,553.2272790527344 l30.71,-24 l48.34,-47.62 s-6.5,-0.3200000000000001 -16,-0.7200000000000002 c-1.73,1.7600000000000002 -3.27,4 -3.37,6.5 c-0.24000000000000005,5.82 -13.07,0.4100000000000001 -19.73,3.74 s-39.28,45.07 -45,44.8 s-10.23,-2.9 -12.620000000000001,1.15 a2.46,2.46 0 0 1 -0.17,0.27 a6.77,6.77 0 0 1 -3.63,2.15 z" opacity="0.1" id="svg_139" class=""/><path d="M417.78638374328614,551.5572790527344 l15.43,49.26 l2.42,7.74 l7.35,-2 l16.2,-4.45 l72.16,-19.82 s13.56,-0.18000000000000005 26,-6.93 c13.75,-7.48 29.26,-11.24 44.84,-9.78 c9.54,0.8900000000000002 20.15,-3.22 29,-19.48 c0,0 20,-59 -30.48,-76 s-52.88,9 -52.88,9 s-0.26,0.14 -0.6800000000000004,0.4200000000000001 c-2,1.25 -7.45,5.18 -7.65,10 c-0.24000000000000005,5.82 -13.07,0.4 -19.73,3.73 s-39.28,45.08 -45,44.81 s-10.23,-2.9 -12.620000000000001,1.15 c0,0.09000000000000004 -0.11000000000000003,0.17 -0.17,0.26 c-1.7600000000000002,2.43 -7.06,3 -10.57,3.09 c-1.9100000000000001,0.06000000000000002 -3.3,0 -3.3,0 l-0.45,0.14 L443.91638374328613,543.7372790527344 z" fill="#434175" id="svg_140" class=""/><path d="M421.77638374328615,455.8672790527344 l7.44,1.18 L432.3163837432861,426.3672790527344 s-3.41,-0.51 -7.67,-1.5 C425.77638374328615,429.1172790527344 423.2163837432861,445.6872790527344 421.77638374328615,455.8672790527344 z" opacity="0.1" id="svg_141" class=""/><path d="M616.4563837432861,312.3672790527344 s22.14,-6.43 16.66,56.43 S586.6963837432861,471.3672790527344 586.6963837432861,471.3672790527344 s-47.14,20.71 -68.33,17.38 s-36.66,-4 -36.66,-4 a53.79,53.79 0 0 0 -21.43,-5.71 c-11.91,-0.4800000000000001 -36.9,-7.86 -37.38,-10.24 s6.19,-37.38 3.33,-40 c0,0 33.33,1.37 36.67,3.7800000000000002 s8.09,0.6800000000000004 11.66,0 s14.53,-10.21 36.19,-1.87 c0,0 7.38,0.7100000000000002 10.24,-1.19 s7.44,-0.4800000000000001 7.44,-0.4800000000000001 S532.9163837432861,427.3672790527344 533.6063837432862,426.3672790527344 s6.42,0 6.42,0 a2.54,2.54 0 0 0 3.58,-1.6700000000000004 a15.56,15.56 0 0 1 3.33,-5.23 s6.43,-36.19 18.57,-49.76 c0,0 3.5700000000000003,-3.1 2.62,-6.91 S587.9163837432861,304.7372790527344 616.4563837432861,312.3672790527344 z" opacity="0.1" id="svg_142" class=""/><path d="M615.9163837432861,307.5272790527344 s22.14,-6.43 16.67,56.43 S586.1063837432862,466.5672790527344 586.1063837432862,466.5672790527344 s-47.14,20.71 -68.33,17.38 s-36.66,-4.05 -36.66,-4.05 a53.72,53.72 0 0 0 -21.43,-5.71 c-11.9,-0.4800000000000001 -36.9,-7.86 -37.38,-10.24 s6.19,-37.38 3.34,-40 c0,0 33.33,1.37 36.66,3.7800000000000002 s8.1,0.6800000000000004 11.67,0 s14.52,-10.2 36.19,-1.87 c0,0 7.38,0.7100000000000002 10.23,-1.19 s7.45,-0.4800000000000001 7.45,-0.4800000000000001 s4.46,-1.6700000000000004 5.17,-2.62 s6.43,0 6.43,0 a2.5300000000000002,2.5300000000000002 0 0 0 3.5700000000000003,-1.6600000000000001 a15.54,15.54 0 0 1 3.33,-5.24 s6.43,-36.19 18.57,-49.76 c0,0 3.5700000000000003,-3.1 2.62,-6.9 S587.2963837432861,299.9072790527344 615.9163837432861,307.5272790527344 z" fill="#565387" id="svg_143" class=""/><path d="M443.91638374328613,543.7372790527344 l31.44,38 c0.12000000000000002,-0.11000000000000003 0.2,-0.19000000000000006 0.2,-0.22000000000000006 c0.24000000000000005,-0.7200000000000002 3.33,-8.81 2.62,-9.29 s-6.19,-12.38 -17.14,-17.38 c-6.69,-3 -11.07,-8.49 -13.46,-12.25 z" opacity="0.1" id="svg_144" class=""/><path d="M444.3463837432861,609.5772790527344 l3.44,2 s8,-6.4 15.91,-12.84 s15.63,-12.75 15.76,-13.11 c0.23,-0.7100000000000002 3.3200000000000003,-8.81 2.6100000000000003,-9.28 c-0.3700000000000001,-0.25 -2,-3.55 -5,-7.37 c-21.32,-6 -7.75,8.83 -5.94,9.51 c0,0 -26,-6 -27.38,22.31 A33.36,33.36 0 0 0 444.3463837432861,609.5772790527344 z" opacity="0.1" id="svg_145" class=""/><path d="M470.63638374328616,621.5572790527344 l4.53,2.62 l46,1.19 s9.86,6 16.26,7.82 a13.93,13.93 0 0 0 2.31,0.51 a103.27,103.27 0 0 0 12.8,0.24000000000000005 c3.52,-0.09000000000000004 6.25,-0.24000000000000005 6.25,-0.24000000000000005 s-2.18,-58 -3.8200000000000003,-64 c-0.78,-2.92 -4.63,-2.2800000000000002 -8.43,-0.8200000000000002 a55.19,55.19 0 0 0 -8.23,4.17 s-19.52,1.8900000000000001 -22.62,3.5700000000000003 s-11.9,-1 -17.38,0 s-15.23,-6.45 -15.23,-6.45 c-26.67,-8.8 -11.67,7.62 -9.77,8.34 c0,0 -25.94,-6 -27.37,22.31 S470.63638374328616,621.5572790527344 470.63638374328616,621.5572790527344 z" fill="#565387" id="svg_146" class=""/><path d="M537.0663837432861,599.1772790527343 c0.5,12 9.85,26.89 15.42,34.76 c3.52,-0.09000000000000004 6.25,-0.24000000000000005 6.25,-0.24000000000000005 s-2.18,-58 -3.8200000000000003,-64 c-0.78,-2.92 -4.63,-2.2800000000000002 -8.43,-0.8200000000000002 C541.9163837432861,577.4772790527344 536.6663837432861,589.5072790527344 537.0663837432861,599.1772790527343 z" fill="#565387" id="svg_147" class=""/><path d="M537.0663837432861,599.1772790527343 c0.5,12 9.85,26.89 15.42,34.76 c3.52,-0.09000000000000004 6.25,-0.24000000000000005 6.25,-0.24000000000000005 s-2.18,-58 -3.8200000000000003,-64 c-0.78,-2.92 -4.63,-2.2800000000000002 -8.43,-0.8200000000000002 C541.9163837432861,577.4772790527344 536.6663837432861,589.5072790527344 537.0663837432861,599.1772790527343 z" opacity="0.1" id="svg_148" class=""/><path d="M529.2063837432861,600.7672790527344 c3.16,11.58 3.13,24.57 8.17,32.42 a13.93,13.93 0 0 0 2.31,0.51 a103.27,103.27 0 0 0 12.8,0.24000000000000005 c3.52,-0.09000000000000004 6.25,-0.24000000000000005 6.25,-0.24000000000000005 s-2.18,-58 -3.8200000000000003,-64 c-0.78,-2.92 -4.63,-2.2800000000000002 -8.43,-0.8200000000000002 a55.19,55.19 0 0 0 -8.23,4.17 S525.1663837432861,585.9472790527344 529.2063837432861,600.7672790527344 z" opacity="0.05" id="svg_149" class=""/><path d="M370.6863837432861,483.30727905273443 s22.82,7.41 42.16,33.73 z" opacity="0.1" id="svg_150" class=""/><g opacity="0.1" id="svg_151" class=""><path d="M556.1463837432862,197.62727905273437 a4.67,4.67 0 0 1 -0.14,0.5 a16.15,16.15 0 0 1 -0.79,2 A14.93,14.93 0 0 1 556.1463837432862,197.62727905273437 z" id="svg_152"/><path d="M427.02638374328615,186.07727905273435 a21.46,21.46 0 0 1 1.77,-4.8100000000000005 c-0.12000000000000002,0.4100000000000001 -0.25,0.8200000000000002 -0.3500000000000001,1.24 c-1.21,5.18 -0.2,10.61 1.06,15.79 c0.6500000000000002,2.67 1.53,5.5600000000000005 3.84,7.05 c3.55,2.27 9,0.2900000000000001 11.92,3.35 c1.84,1.9500000000000002 1.94,5.41 4.34,6.61 a4.91,4.91 0 0 0 2.84,0.3300000000000001 c6.32,-0.9 10,-8 16.07,-10 c3.46,-1.12 7.26,-0.3900000000000001 10.65,0.92 a7.8,7.8 0 0 1 3.52,2.26 c2,2.63 0.6100000000000002,6.51 1.55,9.69 c1.31,4.42 6.59,6.18 11.16,6.75 s9.72,0.9 12.77,4.36 c2.16,2.44 2.71,6 2.27,9.21 a7.42,7.42 0 0 0 0,3.41 c1.26,3.5700000000000003 7.44,3 9,0.22000000000000006 c1.18,-2.05 0.8300000000000002,-3.75 3.6100000000000003,-4.32 c1.87,-0.3900000000000001 4.08,0.4 5.82,1 a42.78,42.78 0 0 0 15.38,2.31 c4.27,-0.15000000000000005 8.71,-1 12.07,-3.66 a14,14 0 0 0 3.7,-4.5 A15.14,15.14 0 0 1 554.9163837432861,241.36727905273438 c-3.36,2.64 -7.79,3.52 -12.07,3.66 a42.69,42.69 0 0 1 -15.37,-2.31 c-1.75,-0.6000000000000002 -4,-1.3900000000000001 -5.83,-1 c-2.7800000000000002,0.5700000000000002 -2.43,2.27 -3.6,4.32 c-1.62,2.8200000000000003 -7.79,3.35 -9.06,-0.22000000000000006 a7.42,7.42 0 0 1 0,-3.41 c0.4400000000000001,-3.23 -0.1,-6.77 -2.26,-9.21 c-3.06,-3.45 -8.21,-3.7800000000000002 -12.78,-4.35 s-9.85,-2.33 -11.15,-6.75 c-0.9500000000000002,-3.19 0.4800000000000001,-7.07 -1.55,-9.7 a7.88,7.88 0 0 0 -3.5300000000000002,-2.26 c-3.39,-1.31 -7.19,-2 -10.65,-0.92 c-6.08,2 -9.75,9.12 -16.07,10 a4.91,4.91 0 0 1 -2.84,-0.3300000000000001 c-2.4,-1.2 -2.5,-4.66 -4.34,-6.6 c-2.89,-3.06 -8.37,-1.09 -11.91,-3.36 c-2.3200000000000003,-1.49 -3.2,-4.38 -3.85,-7.05 C426.8163837432861,196.68727905273437 425.8063837432861,191.25727905273436 427.02638374328615,186.07727905273435 z" id="svg_153"/></g><path d="M559.8363837432861,376.62727905273437 c-4.36,5.8900000000000015 -9.34,11.34 -13.2,17.57 s-6.59,13.5 -5.78,20.78 c4,-4.1 5.82,-9.76 8.34,-14.9 c4.26,-8.7 10.64,-16.08 16,-24.08 c1,-1.53 7.61,-10.35 4.28,-10.77 C566.7363837432862,364.87727905273437 561.3263837432861,374.6172790527344 559.8363837432861,376.62727905273437 z" opacity="0.1" id="svg_154" class=""/></g></svg>