<?xml version="1.0" encoding="iso-8859-1"?>
<!-- Generator: Adobe Illustrator 19.0.0, SVG Export Plug-In . SVG Version: 6.00 Build 0)  -->
<svg version="1.1" id="Capa_1" xmlns="http://www.w3.org/2000/svg" xmlns:xlink="http://www.w3.org/1999/xlink" x="0px" y="0px"
	 viewBox="0 0 512.005 512.005" style="enable-background:new 0 0 512.005 512.005;" xml:space="preserve">
<g>
	<rect x="238.928" y="247.464" style="fill:#E65848;" width="34.132" height="255.991"/>
	<rect x="418.122" y="247.464" style="fill:#E65848;" width="34.132" height="255.991"/>
</g>
<g>
	<rect x="187.73" y="418.125" style="fill:#FDC536;" width="315.723" height="34.132"/>
	<rect x="204.796" y="281.596" style="fill:#FDC536;" width="281.591" height="102.397"/>
</g>
<path style="fill:#2AB69D;" d="M116.607,226.797L86.767,17.942c-0.401-2.773-1.681-5.342-3.644-7.338
	c-8.072-9.011-20.616-12.569-32.221-9.13c-10.188,3.328-17.595,12.16-19.088,22.766L2.878,226.797
	c-1.997,13.994,7.731,26.964,21.725,28.961c1.195,0.171,2.406,0.256,3.618,0.256h63.051c14.139,0,25.599-11.46,25.599-25.599
	c0-1.212-0.085-2.423-0.256-3.618L116.607,226.797L116.607,226.797z"/>
<path style="fill:#E65848;" d="M435.197,25.622L435.197,25.622c28.279,0,51.198,22.92,51.198,51.198l0,0
	c0,28.279-22.92,51.198-51.198,51.198l0,0c-28.279,0-51.198-22.92-51.198-51.198l0,0C383.998,48.55,406.918,25.622,435.197,25.622z"
	/>
<path style="fill:#2AB69D;" d="M209.071,174.19L209.071,174.19L182.388,40.682c-3.183-15.897-18.653-26.205-34.55-23.014
	c-11.613,2.33-20.693,11.4-23.014,23.014L98.141,174.19c-2.773,13.866,6.212,27.348,20.078,30.13c1.647,0.333,3.319,0.495,5,0.495
	h60.764c14.139-0.009,25.591-11.477,25.582-25.616C209.566,177.518,209.404,175.846,209.071,174.19z"/>
<path style="fill:#0B9FBD;" d="M238.937,106.685L238.937,106.685c0,25.923,21.008,46.932,46.932,46.932h200.527
	c9.429,0,17.066-7.637,17.066-17.066l0,0c0-9.429-7.637-17.066-17.066-17.066h-34.132c0-28.279-22.92-51.198-51.198-51.198h-8.533
	v-8.533c0-28.279-22.92-51.198-51.198-51.198l0,0c-28.279,0-51.198,22.92-51.198,51.198h-4.267
	C259.953,59.754,238.937,80.771,238.937,106.685z"/>
<path style="fill:#2AB69D;" d="M119.474,426.675v-8.533c0-32.989-26.743-59.731-59.731-59.731S0.011,385.153,0.011,418.142v93.864
	h119.463c23.56,0,42.665-19.105,42.665-42.665S143.042,426.675,119.474,426.675z"/>
<path d="M285.868,162.15h200.527c14.139,0,25.599-11.46,25.599-25.599s-11.46-25.599-25.599-25.599h-2.202
	c18.875-27.024,12.271-64.228-14.745-83.103c-23.039-16.093-54.176-13.934-74.775,5.18c-14.728-29.49-50.575-41.454-80.057-26.726
	c-17.552,8.772-29.678,25.608-32.426,45.037c-30.565,2.005-53.716,28.415-51.71,58.98C232.4,139.495,256.634,162.176,285.868,162.15
	z M400.535,52.014c13.653-19.208,40.293-23.705,59.492-10.052c19.208,13.653,23.705,40.293,10.052,59.492
	c-2.577,3.627-5.717,6.835-9.284,9.489h-0.589c-4.284-29.379-29.456-51.173-59.143-51.198c-0.017-2.449-0.179-4.898-0.495-7.33
	C400.552,52.287,400.561,52.151,400.535,52.014z M285.868,68.287h12.8v-8.533c0.043-23.56,19.182-42.631,42.742-42.588
	c20.121,0.034,37.477,14.122,41.658,33.808l0.085,0.452c0.555,2.748,0.836,5.529,0.845,8.328V76.82h17.066
	c23.551,0.026,42.64,19.114,42.665,42.665v8.533h42.665c4.71,0,8.533,3.823,8.533,8.533c0,4.71-3.823,8.533-8.533,8.533H285.868
	c-21.205,0-38.399-17.194-38.399-38.399S264.664,68.287,285.868,68.287z"/>
<path d="M460.796,392.543h34.132V273.08h-34.132v-34.132h-51.198v34.132H281.602v-34.132h-51.198v34.132h-34.132v119.463h34.132
	v17.066h-51.198v51.198h51.198v34.132h-68.264V204.816h21.853c14.139-0.009,25.591-11.485,25.574-25.625
	c0-1.681-0.171-3.353-0.495-5l0,0L182.388,40.682c-3.183-15.897-18.653-26.205-34.55-23.014c-11.613,2.33-20.693,11.4-23.014,23.014
	l-20.3,101.543L86.767,17.942c-0.401-2.773-1.681-5.342-3.644-7.338c-8.072-9.011-20.616-12.569-32.221-9.13
	c-10.188,3.328-17.595,12.16-19.088,22.766L2.878,226.797c-1.997,13.994,7.731,26.964,21.725,28.961
	c1.195,0.171,2.406,0.256,3.618,0.256h22.988v103.079c-29.354,4.258-51.147,29.388-51.198,59.049v93.864h511.983v-17.066h-51.198
	v-34.132h51.198v-51.198h-51.198V392.543z M141.557,44.027c1.331-6.656,7.808-10.965,14.464-9.634
	c4.864,0.973,8.661,4.779,9.634,9.634l26.7,133.482l0,0c0.939,4.616-2.039,9.122-6.656,10.069c-0.563,0.111-1.135,0.171-1.707,0.171
	h-21.853v-51.198h-17.066v51.198H123.22c-4.71,0-8.533-3.823-8.533-8.533c0-0.572,0.06-1.143,0.171-1.707L141.557,44.027z
	 M28.221,238.948c-4.71-0.009-8.533-3.831-8.525-8.542c0-0.401,0.026-0.802,0.085-1.195L48.709,26.663
	c0.589-4.198,3.516-7.697,7.543-9.011c5-1.34,10.325,0.213,13.815,4.036l29.644,207.524c0.666,4.668-2.577,8.985-7.245,9.651
	c-0.401,0.06-0.802,0.085-1.203,0.085H68.276v-59.731H51.209v59.731H28.221z M91.272,256.014c14.139,0,25.599-11.46,25.599-25.599
	c0-1.212-0.085-2.423-0.256-3.618l-3.413-24.123c3.157,1.382,6.57,2.116,10.018,2.142h21.853V435.43
	c-7.338-5.649-16.341-8.721-25.599-8.755v-8.533c-0.051-29.661-21.845-54.791-51.198-59.049V256.014H91.272z M17.077,494.939
	v-76.797c0-23.56,19.105-42.665,42.665-42.665s42.665,19.105,42.665,42.665v25.599h17.066c14.139,0,25.599,11.46,25.599,25.599
	s-11.46,25.599-25.599,25.599H17.077z M443.73,409.609h-17.066v-17.066h17.066V409.609z M409.598,409.609H281.602v-17.066h127.996
	V409.609z M426.664,256.014h17.066v17.066h-17.066V256.014z M247.47,256.014h17.066v17.066H247.47V256.014z M213.337,375.477
	v-85.331h264.525v85.331H213.337z M247.47,392.543h17.066v17.066H247.47V392.543z M247.47,494.939v-34.132h17.066v34.132H247.47z
	 M281.602,494.939v-34.132h127.996v34.132H281.602z M443.73,494.939h-17.066v-34.132h17.066V494.939z M494.928,426.675v17.066
	H196.271v-17.066H494.928z"/>
<g>
</g>
<g>
</g>
<g>
</g>
<g>
</g>
<g>
</g>
<g>
</g>
<g>
</g>
<g>
</g>
<g>
</g>
<g>
</g>
<g>
</g>
<g>
</g>
<g>
</g>
<g>
</g>
<g>
</g>
</svg>
